<?xml version="1.0" encoding="UTF-8"?>
<svg version="1.1" xmlns="http://www.w3.org/2000/svg" width="512" height="512">
<path d="M0 0 C1.24979141 -0.00570007 2.49958282 -0.01140015 3.7872467 -0.01727295 C6.42871264 -0.02667775 9.07019008 -0.03323884 11.71166992 -0.03710938 C15.65235034 -0.0435697 19.59264514 -0.07772592 23.53320312 -0.109375 C83.186295 -0.35935993 149.19789416 12.49853201 193.31396484 55.76708984 C194.86613069 57.28216444 196.44357161 58.76777314 198.0234375 60.25390625 C238.28384616 98.66115198 255.07338051 159.20521013 256.89202881 213.38711548 C256.94854317 216.76357833 256.97593753 220.13871172 256.98828125 223.515625 C256.99398132 224.76400146 256.9996814 226.01237793 257.0055542 227.29858398 C257.01495083 229.93407357 257.02151678 232.56957463 257.02539062 235.20507812 C257.03499459 239.13694251 257.06602838 243.06826009 257.09765625 247 C257.3510011 307.3536633 243.90454743 373.24307128 200.22021484 417.73291016 C198.84233251 419.14454802 197.49461419 420.58543894 196.1484375 422.02734375 C157.73963714 462.27333635 96.5777829 478.50064675 42.59666443 480.30999756 C39.34670644 480.36595562 36.09806781 480.39337285 32.84765625 480.40625 C31.65652222 480.41326431 30.46538818 480.42027863 29.23815918 480.42750549 C25.42045259 480.44489799 21.60290099 480.45135653 17.78515625 480.453125 C15.83113892 480.45413712 15.83113892 480.45413712 13.83764648 480.45516968 C-4.69202126 480.43989295 -22.89456563 480.23500201 -41.21484375 477.203125 C-42.31441406 477.02620117 -43.41398438 476.84927734 -44.546875 476.66699219 C-80.73197092 470.68094346 -117.04573059 459.13265096 -146.21484375 436.203125 C-147.56449219 435.18412109 -147.56449219 435.18412109 -148.94140625 434.14453125 C-193.68132379 399.23683747 -214.47534793 344.97419022 -221.36669922 290.06152344 C-222.66279172 279.00015156 -223.37725412 268.02906738 -223.41796875 256.890625 C-223.42366882 255.64224854 -223.4293689 254.39387207 -223.4352417 253.10766602 C-223.44463833 250.47217643 -223.45120428 247.83667537 -223.45507812 245.20117188 C-223.46468209 241.26930749 -223.49571588 237.33798991 -223.52734375 233.40625 C-223.77538475 174.31610837 -210.8579372 112.83877909 -171.21484375 67.203125 C-170.6115625 66.47867188 -170.00828125 65.75421875 -169.38671875 65.0078125 C-165.36296468 60.24093268 -160.98646126 56.2069909 -156.21484375 52.203125 C-154.97347656 51.09517578 -154.97347656 51.09517578 -153.70703125 49.96484375 C-112.54727583 14.02171471 -53.53630828 0.19482774 0 0 Z " fill="#FEFEFF" transform="translate(239.21484375,15.796875)"/>
<path d="M0 0 C1.24979141 -0.00570007 2.49958282 -0.01140015 3.7872467 -0.01727295 C6.42871264 -0.02667775 9.07019008 -0.03323884 11.71166992 -0.03710938 C15.65235034 -0.0435697 19.59264514 -0.07772592 23.53320312 -0.109375 C83.186295 -0.35935993 149.19789416 12.49853201 193.31396484 55.76708984 C194.86613069 57.28216444 196.44357161 58.76777314 198.0234375 60.25390625 C238.28384616 98.66115198 255.07338051 159.20521013 256.89202881 213.38711548 C256.94854317 216.76357833 256.97593753 220.13871172 256.98828125 223.515625 C256.99398132 224.76400146 256.9996814 226.01237793 257.0055542 227.29858398 C257.01495083 229.93407357 257.02151678 232.56957463 257.02539062 235.20507812 C257.03499459 239.13694251 257.06602838 243.06826009 257.09765625 247 C257.35631245 308.61897132 243.24050247 373.96224583 198.78515625 419.203125 C197.7535809 420.27312393 196.72233101 421.34343672 195.69140625 422.4140625 C188.25463645 430.0466316 188.25463645 430.0466316 184.78515625 431.203125 C184.7827679 430.14166543 184.78037954 429.08020586 184.77791882 427.98658085 C184.71899976 402.1020838 184.6430407 376.21767891 184.54944134 350.33328342 C184.50456682 337.81554064 184.46513305 325.29782578 184.4387207 312.7800293 C184.41567291 301.863472 184.38219958 290.94700368 184.33645469 280.03051704 C184.3126137 274.2558261 184.2938253 268.48122279 184.28754234 262.70648384 C184.28145001 257.25883925 184.26130202 251.8114186 184.23088074 246.36385727 C184.22216652 244.37628046 184.21836401 242.38867429 184.22014809 240.40107918 C184.24378988 201.87103345 170.99365853 165.99856059 143.8359375 138.19140625 C116.53804211 111.10383173 80.72729664 97.10030024 42.41552734 97.02612305 C40.98042644 97.01984561 39.54532712 97.01319771 38.11022949 97.00621033 C33.42636209 96.98532101 28.74249493 96.97482269 24.05859375 96.96484375 C22.43652964 96.96079064 20.81446568 96.95667356 19.19240189 96.95249367 C11.56833314 96.93347581 3.94427387 96.9192373 -3.67981398 96.9108817 C-12.43888635 96.90111967 -21.19770534 96.87481287 -29.95668852 96.83438081 C-36.75535169 96.80408951 -43.55394272 96.78940061 -50.35267198 96.78610069 C-54.4002242 96.78376525 -58.4475047 96.77500332 -62.49498367 96.74963951 C-66.30860493 96.72612386 -70.12177998 96.72221818 -73.93545532 96.73240089 C-75.97575751 96.73312142 -78.01603826 96.71419788 -80.0562439 96.69433594 C-100.0834766 96.80533005 -116.85524829 104.41467536 -131.328125 118.21875 C-144.35038298 131.87315643 -150.52787524 149.08101687 -150.49331665 167.72547913 C-150.49910905 168.85614585 -150.50490145 169.98681257 -150.51086938 171.15174192 C-150.52781665 174.9241886 -150.53074139 178.69651253 -150.53369141 182.46899414 C-150.54189618 185.17965497 -150.55307571 187.89030165 -150.56413269 190.60095215 C-150.58635277 196.42848762 -150.60139755 202.25600569 -150.61149979 208.0835743 C-150.6261162 216.50914215 -150.65166126 224.93464935 -150.67983107 233.3601815 C-150.72524534 247.03169019 -150.76188228 260.70320764 -150.79296875 274.37475586 C-150.8231763 287.6514642 -150.85753668 300.92815115 -150.89746094 314.20483398 C-150.89992249 315.02389326 -150.90238403 315.84295253 -150.90492018 316.68683178 C-150.91729521 320.79601587 -150.92975166 324.90519971 -150.94224858 329.01438344 C-151.04573601 363.07726818 -151.13496572 397.14017674 -151.21484375 431.203125 C-185.22140946 411.25802632 -204.52809417 364.82669564 -214.13769531 328.73730469 C-220.05136296 305.19597384 -223.3292253 281.1684785 -223.41796875 256.890625 C-223.42366882 255.64224854 -223.4293689 254.39387207 -223.4352417 253.10766602 C-223.44463833 250.47217643 -223.45120428 247.83667537 -223.45507812 245.20117188 C-223.46468209 241.26930749 -223.49571588 237.33798991 -223.52734375 233.40625 C-223.77538475 174.31610837 -210.8579372 112.83877909 -171.21484375 67.203125 C-170.6115625 66.47867188 -170.00828125 65.75421875 -169.38671875 65.0078125 C-165.36296468 60.24093268 -160.98646126 56.2069909 -156.21484375 52.203125 C-154.97347656 51.09517578 -154.97347656 51.09517578 -153.70703125 49.96484375 C-112.54727583 14.02171471 -53.53630828 0.19482774 0 0 Z " fill="#6EB3FF" transform="translate(239.21484375,15.796875)"/>
<path d="M0 0 C2.03744245 -0.00485923 4.07488013 -0.01230117 6.11230469 -0.02212524 C11.63310893 -0.04090473 17.15320162 -0.02212566 22.6739502 0.00453901 C28.45711341 0.0272078 34.24024261 0.01894993 40.0234375 0.01504517 C49.73449293 0.01328046 59.44526882 0.03541506 69.15625 0.07226562 C80.3762444 0.11459928 91.59582936 0.12162 102.81588745 0.10914171 C113.61852411 0.09774368 124.4210169 0.10905832 135.22363281 0.1314888 C139.8167589 0.1407666 144.40979679 0.14253464 149.00292969 0.13831711 C154.41378494 0.13454369 159.8242248 0.15081711 165.23498535 0.1824379 C167.21828492 0.19090691 169.20162671 0.19263589 171.18493652 0.1870575 C173.897181 0.18058739 176.60819455 0.19883988 179.3203125 0.22323608 C180.10087006 0.21567744 180.88142761 0.20811879 181.68563843 0.20033109 C187.78207893 0.29700991 193.14078988 1.92476223 197.65652466 6.19181097 C203.61229867 13.07562376 203.4902731 18.63414734 203.5 27.43212891 C203.52449219 28.57875 203.54898438 29.72537109 203.57421875 30.90673828 C203.59836165 37.93634633 203.075152 43.77213838 199.125 49.74462891 C196.87109375 51.90087891 196.87109375 51.90087891 194.5625 53.24462891 C193.79808594 53.70869141 193.03367187 54.17275391 192.24609375 54.65087891 C187.84181242 56.9219632 183.86926897 56.89293742 179.03547668 56.89179993 C178.2014297 56.89547661 177.36738272 56.8991533 176.50806159 56.90294141 C173.70304074 56.91398668 170.89805693 56.91782353 168.09301758 56.92163086 C166.08587526 56.92789489 164.07873411 56.93454164 162.07159424 56.94154358 C156.61066913 56.95895922 151.14975278 56.96950698 145.68880677 56.97774911 C142.27739132 56.98289829 138.86597858 56.98897408 135.45456505 56.99526024 C124.7822488 57.01431428 114.10993948 57.02854472 103.43760949 57.03687221 C91.11611802 57.04664505 78.79480618 57.07296504 66.473378 57.1133731 C56.95140137 57.14352925 47.42947623 57.15834063 37.90745276 57.16165322 C32.21965711 57.16400434 26.5320533 57.17297297 20.84430885 57.1981144 C15.4918714 57.22139109 10.13975217 57.22562983 4.78727722 57.21535301 C2.82491688 57.21485744 0.8625409 57.22118411 -1.0997715 57.23490906 C-3.78374738 57.25262807 -6.46658124 57.2455219 -9.15055847 57.2323761 C-10.30900144 57.24882997 -10.30900144 57.24882997 -11.49084729 57.26561624 C-17.58743333 57.19377335 -22.80664187 55.50186147 -27.40683812 51.3681162 C-33.60065249 44.45803911 -33.2684963 36.62147576 -33.3125 27.86962891 C-33.34537109 26.72365234 -33.37824219 25.57767578 -33.41210938 24.39697266 C-33.45877447 17.02388701 -32.72339692 12.35159652 -27.875 6.74462891 C-27.43228256 6.20558741 -26.98956512 5.66654591 -26.53343201 5.11116982 C-19.43213421 -1.72476186 -9.15003335 -0.07618526 0 0 Z " fill="#0B8BFF" transform="translate(170.875,374.25537109375)"/>
<path d="M0 0 C32.41386797 3.62146091 61.05935968 19.26390586 84 42 C85.18335938 43.16402344 85.18335938 43.16402344 86.390625 44.3515625 C108.83151674 67.84184846 123.25022105 101.91022438 123.0390625 134.39453125 C123.03624268 135.22456665 123.03342285 136.05460205 123.03051758 136.90979004 C123.0232125 138.93987237 123.01200509 140.96994002 123 143 C118.18438465 143.10072078 113.36941426 143.17231603 108.55297852 143.21972656 C106.92298677 143.23954021 105.29306304 143.26659923 103.66333008 143.30175781 C77.42671628 143.8525728 52.59614168 135.79913844 33.43066406 117.43652344 C31.94037065 115.97037185 30.46777701 114.48864835 29 113 C28.25105469 112.26136719 27.50210937 111.52273437 26.73046875 110.76171875 C4.89975777 87.89760133 2.35339129 58.36759818 2.75 28.375 C2.77242589 25.71095108 2.78835135 23.04691144 2.8046875 20.3828125 C2.8483076 13.92154738 2.91487078 7.46084473 3 1 C2.01 0.67 1.02 0.34 0 0 Z " fill="#E1EFFF" transform="translate(301,113)"/>
<path d="M0 0 C2.42500389 0.84854624 3.80440946 2.02650702 5.70606995 3.75053406 C6.40467133 4.38373566 7.10327271 5.01693726 7.82304382 5.66932678 C11.33158829 8.96525028 14.76010866 12.33330825 18.15895081 15.74198914 C18.89992508 16.48200668 19.64089935 17.22202423 20.40432739 17.98446655 C21.95421565 19.53367948 23.50286263 21.08413515 25.05030823 22.63578796 C27.42717955 25.01806294 29.80940351 27.39489285 32.19215393 29.77128601 C33.7022407 31.28203278 35.21201768 32.79308929 36.72145081 34.30448914 C37.43490158 35.01591568 38.14835236 35.72734222 38.88342285 36.46032715 C39.53823135 37.11828781 40.19303986 37.77624847 40.86769104 38.45414734 C41.44534714 39.03259903 42.02300323 39.61105072 42.61816406 40.20703125 C44.75148737 42.53995562 44.98552149 43.78099374 45.35035706 47.00370789 C44.97535706 50.69120789 44.97535706 50.69120789 42.97535706 53.62870789 C39.95616651 55.70440138 37.89816705 56.68615649 34.19020081 56.40995789 C29.09380205 54.75610009 25.66026087 50.39957742 21.97535706 46.69120789 C20.77993749 45.49502601 19.58411737 44.29924433 18.38795471 43.10380554 C14.91708883 39.63293966 11.44622294 36.16207377 7.97535706 32.69120789 C7.96949081 33.59465439 7.96362457 34.49810089 7.95758057 35.42892456 C7.89964733 43.94818902 7.82756692 52.46719148 7.73964214 60.98620129 C7.69493805 65.36579736 7.65568208 69.74530039 7.62892151 74.12504578 C7.60288881 78.35273548 7.56248684 82.58006719 7.51217079 86.80753517 C7.49550181 88.41939652 7.48398771 90.03131979 7.47774315 91.64325523 C7.46810215 93.90335381 7.44004456 96.1625365 7.4077301 98.42240906 C7.39662704 99.70814316 7.38552399 100.99387726 7.37408447 102.318573 C6.94546047 105.94408805 6.17843556 107.81117788 3.97535706 110.69120789 C0.22488224 113.19152443 -1.5832056 113.22724343 -6.02464294 112.69120789 C-9.4661103 110.04915859 -10.86466153 108.5542781 -11.66387939 104.24264526 C-11.69585322 102.90840137 -11.70091238 101.57333594 -11.68406677 100.23881531 C-11.69455048 99.50656738 -11.70503418 98.77431946 -11.71583557 98.0198822 C-11.74452134 95.61171253 -11.73830234 93.2049861 -11.73167419 90.79667664 C-11.74479328 89.12228601 -11.76009816 87.4479112 -11.77749634 85.77355957 C-11.81733508 81.37586615 -11.82753601 76.97858684 -11.83152771 72.58073425 C-11.84086133 68.08943631 -11.87827627 63.59838146 -11.91331482 59.10722351 C-11.97787917 50.30188049 -12.01112861 41.49677655 -12.02464294 32.69120789 C-12.64508484 33.3168866 -13.26552673 33.94256531 -13.9047699 34.58720398 C-16.21183442 36.91132907 -18.52114768 39.23317194 -20.83201599 41.55351257 C-21.83097195 42.55749167 -22.82902781 43.56236721 -23.82615662 44.56816101 C-25.26104287 46.01520126 -26.69915428 47.4589678 -28.13792419 48.90214539 C-29.0019989 49.77145691 -29.86607361 50.64076843 -30.7563324 51.53642273 C-33.9202748 54.54201477 -35.49309634 55.63119456 -39.89964294 56.12870789 C-43.28110463 56.02888614 -44.06867662 55.66093473 -47.02464294 53.62870789 C-49.02464294 50.69120789 -49.02464294 50.69120789 -49.77464294 47.37870789 C-49.00252457 43.58245921 -48.48199117 42.72594391 -45.99461365 39.98588562 C-45.35907562 39.28551178 -44.7235376 38.58513794 -44.06874084 37.86354065 C-40.69249358 34.27548719 -37.24362665 30.76761449 -33.75511169 27.28886414 C-32.61179131 26.14410866 -32.61179131 26.14410866 -31.44537354 24.97622681 C-29.84908227 23.37926 -28.25154741 21.78353535 -26.65281677 20.18901062 C-24.19811472 17.73971053 -21.74885399 15.28505885 -19.30003357 12.82987976 C-17.74371387 11.27422009 -16.18708443 9.71887022 -14.63011169 8.16386414 C-13.89681137 7.42853958 -13.16351105 6.69321503 -12.4079895 5.93560791 C-11.73000809 5.26077866 -11.05202667 4.5859494 -10.35350037 3.89067078 C-9.75728378 3.29524979 -9.1610672 2.6998288 -8.54678345 2.08636475 C-5.77443529 -0.45470196 -3.68947983 -0.59973496 0 0 Z " fill="#0D8CFF" transform="translate(258.02464294433594,242.3087921142578)"/>
<path d="M0 0 C0.91330078 -0.00478363 1.82660156 -0.00956726 2.76757812 -0.01449585 C4.69402799 -0.01789067 6.62053579 -0.00871744 8.546875 0.01220703 C11.49089348 0.03897969 14.4310997 0.01244628 17.375 -0.01953125 C19.25000839 -0.01622708 21.12501442 -0.00982068 23 0 C23.87720703 -0.01012115 24.75441406 -0.02024231 25.65820312 -0.03067017 C30.0835179 0.05393716 31.94698025 0.23843858 35.55859375 3.01806641 C37.5 5.6640625 37.5 5.6640625 38.0625 8.6640625 C37.37642343 12.32313754 36.07265686 14.01573926 33.5 16.6640625 C28.37972812 19.22419844 20.28861157 17.97750904 14.58886719 18.01416016 C12.70332479 18.0307 10.81784459 18.05796409 8.93261719 18.09619141 C6.20995657 18.15110301 3.48876563 18.17285676 0.765625 18.1875 C-0.07208435 18.21016937 -0.9097937 18.23283875 -1.77288818 18.25619507 C-5.93537058 18.2412525 -8.69261939 17.95773177 -12.03613281 15.35009766 C-14.5 12.6640625 -14.5 12.6640625 -15.1875 9.1640625 C-13.48551328 0.49940286 -7.56034807 -0.08723078 0 0 Z " fill="#55A8FF" transform="translate(325.5,385.3359375)"/>
</svg>
