<?xml version="1.0" encoding="UTF-8"?>
<svg version="1.1" xmlns="http://www.w3.org/2000/svg" width="900" height="316">
<path d="M0 0 C14.29205716 -0.09312712 28.58404083 -0.16398049 42.87634087 -0.20724869 C49.51452811 -0.22802668 56.15245006 -0.25616352 62.79052734 -0.30175781 C69.20964712 -0.34556679 75.62856699 -0.36921053 82.04782486 -0.37950897 C84.48355374 -0.38683788 86.91927303 -0.40114731 89.35491562 -0.42292023 C128.90220806 -0.76203489 128.90220806 -0.76203489 144 12 C144 12.66 144 13.32 144 14 C144.99 14.33 145.98 14.66 147 15 C154.18911225 25.32501582 156.29069574 36.76662664 154.7265625 49.16796875 C152.76879117 58.42120873 147.73278406 65.656415 140 71 C128.85021965 77.6451413 116.75650865 81.05712493 104 83 C105.03898437 83.23074219 106.07796875 83.46148437 107.1484375 83.69921875 C115.33350843 85.58838339 122.68374823 87.70873694 130 92 C130 92.66 130 93.32 130 94 C130.74121094 94.226875 131.48242188 94.45375 132.24609375 94.6875 C138.64336736 97.73641338 142.63845169 105.61371608 145.375 111.9375 C149.23081787 123.07510949 149.33870401 134.5345127 149.390625 146.19726562 C149.54640616 153.81756092 150.30331722 160.52332131 155.30517578 166.58056641 C165.26375269 175.93334952 186.9631892 172.65390308 197 173 C197 119.21 197 65.42 197 10 C189.41 10 181.82 10 174 10 C173.67 9.67 173.34 9.34 173 9 C173 6.03 173 3.06 173 0 C195.77 0 218.54 0 242 0 C246.43076923 12.18461538 246.43076923 12.18461538 247.75 17.125 C249.60605898 23.78497632 251.68884822 30.35829432 253.8125 36.9375 C256.51948597 45.33611373 259.18091099 53.74560209 261.75 62.1875 C262.01917236 63.06978271 262.28834473 63.95206543 262.56567383 64.86108398 C264.06311717 69.80296945 265.50359815 74.75802788 266.91015625 79.7265625 C269.05094455 87.25112051 271.3547997 94.72055324 273.6875 102.1875 C274.09454263 103.49539865 274.50144414 104.80334123 274.90820312 106.11132812 C276.91151018 112.56934889 276.91151018 112.56934889 279 119 C282.07295404 112.39848043 284.07926413 105.52131832 286.1875 98.5625 C286.98474096 95.95333276 287.78617662 93.34547587 288.58984375 90.73828125 C288.8920433 89.75787369 288.8920433 89.75787369 289.2003479 88.75765991 C291.12124679 82.55570775 293.17046735 76.40020284 295.25 70.25 C297.65067996 63.13650978 299.93283646 56.01731099 301.99487305 48.79882812 C304.37426926 40.55104085 307.05518359 32.39812366 309.70288086 24.23339844 C310.07034424 23.0993457 310.43780762 21.96529297 310.81640625 20.796875 C311.3580542 19.1252832 311.3580542 19.1252832 311.91064453 17.41992188 C313.38801177 12.78187608 314.79129179 8.12229634 316.18334961 3.45800781 C317 1 317 1 318 0 C320.14743549 -0.09425595 322.29801026 -0.11742648 324.44750977 -0.11352539 C325.12065216 -0.11367142 325.79379456 -0.11381744 326.48733521 -0.1139679 C328.72205784 -0.11326878 330.9566981 -0.10547652 333.19140625 -0.09765625 C334.73697362 -0.09579206 336.28254157 -0.09436816 337.82810974 -0.09336853 C341.90357077 -0.0895434 345.97899637 -0.07971317 350.05444336 -0.06866455 C354.21011882 -0.05845032 358.36579999 -0.05387089 362.52148438 -0.04882812 C370.68100587 -0.03809089 378.84049853 -0.02101454 387 0 C387 3.3 387 6.6 387 10 C379.08 10 371.16 10 363 10 C363 63.79 363 117.58 363 173 C370.92 173 378.84 173 387 173 C387 176.3 387 179.6 387 183 C359.28 183 331.56 183 303 183 C303 179.7 303 176.4 303 173 C310.92 173 318.84 173 327 173 C326.67 122.18 326.34 71.36 326 19 C324.35 23.95 322.7 28.9 321 34 C320.14583333 36.54166667 319.29166667 39.08333333 318.4375 41.625 C316.56824883 47.22694838 314.80898881 52.85330097 313.09375 58.50390625 C311.81005231 62.60715423 310.43862775 66.67704291 309.0625 70.75 C307.14126112 76.44701523 305.33707006 82.15621042 303.6875 87.9375 C301.53173011 95.47097846 299.06493773 102.88775848 296.5625 110.3125 C293.82887712 118.42331725 291.17056871 126.53996368 288.75 134.75 C286.5751579 142.12634554 284.24795048 149.43105813 281.77294922 156.71337891 C280.05960637 161.78197306 278.37742189 166.86106065 276.6875 171.9375 C275.98316695 174.05081259 275.2787474 176.16409636 274.57421875 178.27734375 C274.05472656 179.83582031 273.53523438 181.39429688 273 183 C269.37 183 265.74 183 262 183 C261.55269531 181.65808594 261.10539062 180.31617188 260.64453125 178.93359375 C260.20911011 177.62745117 260.20911011 177.62745117 259.76489258 176.29492188 C259.12521195 174.37571601 258.48572914 172.4564442 257.84643555 170.53710938 C256.42293653 166.26410805 254.99881783 161.99136809 253.5625 157.72265625 C250.6629772 149.0875149 247.92775101 140.41588117 245.30664062 131.69238281 C240.70001453 116.36262065 235.84993529 101.11805994 230.91043091 85.89312744 C228.67927785 79.01562175 226.46281668 72.13342867 224.25 65.25 C223.69300415 63.51810425 223.69300415 63.51810425 223.12475586 61.7512207 C220.73229543 54.3036624 218.35901178 46.85031911 216.02636719 39.38378906 C214.09572591 33.22636979 212.04199015 27.12597046 210 21 C209.67 71.16 209.34 121.32 209 173 C216.59 173 224.18 173 232 173 C232 176.3 232 179.6 232 183 C221.01153015 183.04654275 210.02308413 183.08197996 199.03453541 183.10362434 C193.93094692 183.1140177 188.82742636 183.12809475 183.72387695 183.15087891 C178.78959685 183.17276705 173.85538169 183.18460199 168.92105675 183.18975449 C167.04780748 183.19342178 165.17456137 183.20058222 163.3013401 183.21146011 C132.57395846 183.38263897 132.57395846 183.38263897 120 175 C120 174.34 120 173.68 120 173 C119.01 172.67 118.02 172.34 117 172 C115.68359375 170.14453125 115.68359375 170.14453125 114.4375 167.8125 C114.02371094 167.05582031 113.60992187 166.29914063 113.18359375 165.51953125 C110.47391056 159.75139377 109.61959141 154.5460498 109.25390625 148.26953125 C109.13751479 146.56183907 109.02097352 144.85415709 108.90429688 143.14648438 C108.73194905 140.48548279 108.56323214 137.82430669 108.39819336 135.1628418 C107.6237597 115.00131695 107.6237597 115.00131695 98.64453125 97.5390625 C88.40403483 89.1949543 72.17392042 88.76087003 60 88 C60 116.05 60 144.1 60 173 C67.92 173 75.84 173 84 173 C84 176.3 84 179.6 84 183 C56.28 183 28.56 183 0 183 C0 179.7 0 176.4 0 173 C7.92 173 15.84 173 24 173 C24 119.21 24 65.42 24 10 C16.08 10 8.16 10 0 10 C0 6.7 0 3.4 0 0 Z M60 10 C60 32.11 60 54.22 60 77 C68.0746875 77.12375 68.0746875 77.12375 76.3125 77.25 C77.98739502 77.28641602 79.66229004 77.32283203 81.38793945 77.36035156 C91.67449446 77.49130344 100.91068487 76.85260007 109 69.75 C115.19388586 63.49417528 115.38440576 55.6791482 115.41015625 47.37890625 C115.39855469 46.09886719 115.38695312 44.81882813 115.375 43.5 C115.38660156 42.21996094 115.39820313 40.93992187 115.41015625 39.62109375 C115.38022696 29.97388565 114.36329018 22.78534137 107.68359375 15.47265625 C102.05124611 10.54598557 95.01135645 9.85413998 87.83203125 9.90234375 C86.77502014 9.90385437 86.77502014 9.90385437 85.69665527 9.90539551 C83.06858692 9.91062086 80.4405418 9.92458214 77.8125 9.9375 C71.934375 9.958125 66.05625 9.97875 60 10 Z " fill="#FFFFFF" transform="translate(254,14)"/>
<path d="M0 0 C29.91010783 0.02616455 56.41157175 3.0480039 81.37817383 21.19067383 C81.37817383 21.85067383 81.37817383 22.51067383 81.37817383 23.19067383 C82.22508789 23.56772461 82.22508789 23.56772461 83.08911133 23.95239258 C99.95864081 33.07805955 111.74294818 54.75395742 117.31567383 72.50317383 C118.05843986 75.05627887 118.72515702 77.6115318 119.37817383 80.19067383 C119.6230957 81.13426758 119.86801758 82.07786133 120.12036133 83.05004883 C123.31650569 98.19889747 122.48695569 115.33176012 118.37817383 130.19067383 C118.09973633 131.22063477 117.82129883 132.2505957 117.53442383 133.31176758 C115.1667792 141.15969308 111.47921379 148.1195982 107.37817383 155.19067383 C106.88575195 156.04790039 106.39333008 156.90512695 105.88598633 157.78833008 C104.7865824 159.63259643 103.59309017 161.42036716 102.37817383 163.19067383 C101.71817383 163.19067383 101.05817383 163.19067383 100.37817383 163.19067383 C99.71817383 164.84067383 99.05817383 166.49067383 98.37817383 168.19067383 C97.71817383 168.19067383 97.05817383 168.19067383 96.37817383 168.19067383 C96.1177832 168.77461914 95.85739258 169.35856445 95.58911133 169.96020508 C87.27219307 185.27943194 64.5551701 196.53889919 48.52539062 201.56469727 C45.16017287 202.54575677 41.79990094 203.4287141 38.37817383 204.19067383 C37.62882568 204.3761377 36.87947754 204.56160156 36.10742188 204.75268555 C26.87996221 206.77750879 17.58141067 206.410993 8.19067383 206.31567383 C6.45825714 206.30562143 4.72583479 206.29649959 2.9934082 206.28833008 C-1.21192718 206.26821848 -5.41646123 206.22904006 -9.62182617 206.19067383 C-9.62182617 198.93067383 -9.62182617 191.67067383 -9.62182617 184.19067383 C-24.47182617 184.19067383 -39.32182617 184.19067383 -54.62182617 184.19067383 C-54.62182617 169.01067383 -54.62182617 153.83067383 -54.62182617 138.19067383 C-65.84182617 138.19067383 -77.06182617 138.19067383 -88.62182617 138.19067383 C-88.62182617 115.09067383 -88.62182617 91.99067383 -88.62182617 68.19067383 C-77.40182617 68.19067383 -66.18182617 68.19067383 -54.62182617 68.19067383 C-54.62182617 53.34067383 -54.62182617 38.49067383 -54.62182617 23.19067383 C-39.77182617 23.19067383 -24.92182617 23.19067383 -9.62182617 23.19067383 C-9.62182617 15.93067383 -9.62182617 8.67067383 -9.62182617 1.19067383 C-7.48330103 -0.94785131 -2.85077734 0.01928583 0 0 Z " fill="#FFFFFF" transform="translate(91.621826171875,1.809326171875)"/>
<path d="M0 0 C48.51 0 97.02 0 147 0 C149.25 19.125 149.25 19.125 149.4140625 25.66015625 C149.44311172 26.68948524 149.44311172 26.68948524 149.4727478 27.73960876 C149.5306453 29.84712886 149.57813308 31.95470929 149.625 34.0625 C149.66335652 35.52671137 149.702417 36.99090448 149.7421875 38.45507812 C149.83617691 41.96988076 149.92086278 45.48482771 150 49 C146.7 49 143.4 49 140 49 C139.68546875 47.42089844 139.3709375 45.84179688 139.046875 44.21484375 C138.61522178 42.12226403 138.18289447 40.02982329 137.75 37.9375 C137.44255859 36.37999023 137.44255859 36.37999023 137.12890625 34.79101562 C135.8658927 28.76299642 134.29761581 24.19304029 131 19 C131 18.34 131 17.68 131 17 C130.34 17 129.68 17 129 17 C129 16.34 129 15.68 129 15 C128.34 15 127.68 15 127 15 C127 14.34 127 13.68 127 13 C125.41701974 12.5196682 123.83360022 12.04078388 122.25 11.5625 C121.36828125 11.29566406 120.4865625 11.02882813 119.578125 10.75390625 C109.75536692 7.88149366 104.50821811 8.59562943 92 8 C92 62.45 92 116.9 92 173 C100.25 173 108.5 173 117 173 C117 176.3 117 179.6 117 183 C88.29 183 59.58 183 30 183 C30 179.7 30 176.4 30 173 C38.25 173 46.5 173 55 173 C55 118.55 55 64.1 55 8 C36.28661498 7.84303013 36.28661498 7.84303013 20 15 C19.34 15 18.68 15 18 15 C18 15.66 18 16.32 18 17 C17.34 17 16.68 17 16 17 C15.71125 17.928125 15.4225 18.85625 15.125 19.8125 C14 23 14 23 12 26 C11.50798286 27.75847976 11.08612055 29.53716262 10.7109375 31.32421875 C10.49179687 32.35224609 10.27265625 33.38027344 10.046875 34.43945312 C9.82515625 35.51130859 9.6034375 36.58316406 9.375 37.6875 C9.14554688 38.77095703 8.91609375 39.85441406 8.6796875 40.97070312 C8.11399205 43.64597121 7.55434386 46.32236079 7 49 C3.7 49 0.4 49 -3 49 C-4.23862943 46.52274114 -3.97411388 45.28923707 -3.6953125 42.546875 C-3.60693115 41.62737061 -3.5185498 40.70786621 -3.42749023 39.76049805 C-3.32766846 38.76703369 -3.22784668 37.77356934 -3.125 36.75 C-2.24052257 27.44712687 -1.65381404 18.17248409 -1.34228516 8.83300781 C-1.31054199 7.96385742 -1.27879883 7.09470703 -1.24609375 6.19921875 C-1.21020142 5.05199341 -1.21020142 5.05199341 -1.17358398 3.8815918 C-1 2 -1 2 0 0 Z " fill="#FFFFFF" transform="translate(747,14)"/>
<path d="M0 0 C27.39 0 54.78 0 83 0 C83 3.3 83 6.6 83 10 C75.41 10 67.82 10 60 10 C60 63.79 60 117.58 60 173 C67.59 173 75.18 173 83 173 C83 176.3 83 179.6 83 183 C55.61 183 28.22 183 0 183 C0 179.7 0 176.4 0 173 C7.59 173 15.18 173 23 173 C23 119.21 23 65.42 23 10 C15.41 10 7.82 10 0 10 C0 6.7 0 3.4 0 0 Z " fill="#FFFFFF" transform="translate(655,14)"/>
<path d="M0 0 C12 0 12 0 14.921875 2.5546875 C15.52515625 3.65039062 16.1284375 4.74609375 16.75 5.875 C17.38421875 6.96554688 18.0184375 8.05609375 18.671875 9.1796875 C20 12 20 12 20 14 C20.66 14 21.32 14 22 14 C25 18.38461538 25 18.38461538 25 21 C25.66 21 26.32 21 27 21 C27 21.99 27 22.98 27 24 C27.66 24 28.32 24 29 24 C32 28.38461538 32 28.38461538 32 31 C32.66 31 33.32 31 34 31 C37 35.38461538 37 35.38461538 37 38 C37.66 38 38.32 38 39 38 C40.28006797 39.78398614 41.47660351 41.62853906 42.625 43.5 C43.25664062 44.5209375 43.88828125 45.541875 44.5390625 46.59375 C45.02117187 47.3878125 45.50328125 48.181875 46 49 C46.00808685 48.43037033 46.01617371 47.86074066 46.02450562 47.27384949 C46.1104667 41.35282812 46.20996639 35.43214481 46.31738281 29.51147461 C46.35570017 27.30092032 46.39054814 25.09030308 46.421875 22.87963867 C46.46746552 19.70468629 46.52547003 16.53016828 46.5859375 13.35546875 C46.59748871 12.36475876 46.60903992 11.37404877 46.62094116 10.35331726 C46.64081085 9.43258926 46.66068054 8.51186127 46.68115234 7.56323242 C46.69447601 6.7527092 46.70779968 5.94218597 46.7215271 5.10710144 C47 3 47 3 49 0 C51.7885289 -0.22107787 54.34653181 -0.28107535 57.125 -0.1875 C57.87910156 -0.17396484 58.63320313 -0.16042969 59.41015625 -0.14648438 C61.27374127 -0.11109985 63.13695978 -0.05729167 65 0 C65 3.3 65 6.6 65 10 C62.69 10 60.38 10 58 10 C58 30.46 58 50.92 58 72 C47 72 47 72 43.36328125 68.484375 C42.30808095 66.93158025 41.29237484 65.35139455 40.3125 63.75 C39.76416504 62.92459717 39.21583008 62.09919434 38.65087891 61.2487793 C37.06652117 58.8526077 35.53091158 56.43052481 34 54 C32.63854813 51.92812705 31.25608808 49.87142271 29.875 47.8125 C28.97007812 46.43191406 28.97007812 46.43191406 28.046875 45.0234375 C24.61856168 39.95947851 20.96137202 35.06443788 17.3203125 30.15234375 C15.83483073 28.13418923 14.39003085 26.08504628 13 24 C12.98018066 25.31194336 12.96036133 26.62388672 12.93994141 27.97558594 C12.8638625 32.84361955 12.77514836 37.71135516 12.68261719 42.57910156 C12.64433694 44.68581254 12.6094824 46.79258867 12.578125 48.89941406 C12.53245402 51.92797121 12.47446255 54.95608022 12.4140625 57.984375 C12.39673569 59.39707672 12.39673569 59.39707672 12.37905884 60.83831787 C12.35918915 61.71892883 12.33931946 62.59953979 12.31884766 63.50683594 C12.30552399 64.27960876 12.29220032 65.05238159 12.2784729 65.84857178 C12 68 12 68 10 72 C4.39 72 -1.22 72 -7 72 C-7 68.7 -7 65.4 -7 62 C-4.69 62 -2.38 62 0 62 C0 41.54 0 21.08 0 0 Z " fill="#FFFFFF" transform="translate(352,240)"/>
<path d="M0 0 C5.58672194 -0.07436251 11.17315339 -0.12870254 16.76025391 -0.16479492 C18.65939353 -0.17984691 20.55849859 -0.20029316 22.45751953 -0.22631836 C25.19312081 -0.26285992 27.928261 -0.27976238 30.6640625 -0.29296875 C31.50804596 -0.30845261 32.35202942 -0.32393646 33.22158813 -0.33988953 C39.64693058 -0.34170859 43.71961267 1.03780625 48.6875 5.3125 C52.97404458 10.29415992 54.41813059 14.44415061 54.375 21 C54.38660156 22.7634375 54.38660156 22.7634375 54.3984375 24.5625 C53.75289199 30.13191223 51.69046104 33.90567238 47.3125 37.375 C46.68988281 37.87773437 46.06726563 38.38046875 45.42578125 38.8984375 C44.95527344 39.26195312 44.48476563 39.62546875 44 40 C45.73387968 44.51697886 47.72882546 48.88644805 49.8125 53.25 C50.3084668 54.34828125 50.3084668 54.34828125 50.81445312 55.46875 C52.76260929 59.78506354 52.76260929 59.78506354 56.76171875 61.984375 C57.50035156 61.98953125 58.23898437 61.9946875 59 62 C59 65.3 59 68.6 59 72 C48.82010927 73.18600669 48.82010927 73.18600669 45.18359375 70.81640625 C43.48679318 68.64585509 42.27543749 66.44870816 41 64 C40.21652458 62.5837043 39.43120287 61.16842914 38.64453125 59.75390625 C36.98742326 56.72792488 35.34993795 53.69353937 33.7578125 50.6328125 C33.4189502 49.98199707 33.08008789 49.33118164 32.73095703 48.66064453 C32 47 32 47 32 45 C25.07 44.505 25.07 44.505 18 44 C18 53.24 18 62.48 18 72 C14.04 72 10.08 72 6 72 C6 51.54 6 31.08 6 10 C4.02 10 2.04 10 0 10 C0 6.7 0 3.4 0 0 Z M18 10 C18 17.59 18 25.18 18 33 C22.3003125 33.1546875 22.3003125 33.1546875 26.6875 33.3125 C27.58170654 33.35802002 28.47591309 33.40354004 29.3972168 33.45043945 C33.7267343 33.52569741 35.47601125 33.40468471 39.01953125 30.66796875 C42.1524101 26.44754221 42.35622156 23.16521264 42 18 C40.47420982 14.80310629 38.72592943 12.2637851 36 10 C33.97629351 9.58942213 33.97629351 9.58942213 31.76953125 9.70703125 C30.68442261 9.71827026 30.68442261 9.71827026 29.57739258 9.72973633 C28.66497803 9.75704834 27.75256348 9.78436035 26.8125 9.8125 C22.4503125 9.9053125 22.4503125 9.9053125 18 10 Z " fill="#FFFFFF" transform="translate(586,240)"/>
<path d="M0 0 C2.62527189 -0.05382106 5.24944713 -0.09358313 7.875 -0.125 C8.62136719 -0.14175781 9.36773437 -0.15851563 10.13671875 -0.17578125 C12.09194461 -0.1933959 14.04742021 -0.10320189 16 0 C18.46546143 2.46546143 18.25752417 3.17680217 18.28710938 6.56982422 C18.30052368 7.51775848 18.31393799 8.46569275 18.32775879 9.44235229 C18.33303589 10.46942291 18.33831299 11.49649353 18.34375 12.5546875 C18.3583728 13.60778107 18.37299561 14.66087463 18.38806152 15.74588013 C18.43468812 19.12221473 18.46881154 22.49848954 18.5 25.875 C18.54109515 30.31011542 18.59478093 34.74481296 18.65625 39.1796875 C18.6615271 40.20270966 18.6668042 41.22573181 18.67224121 42.27975464 C18.68565552 43.23399323 18.69906982 44.18823181 18.71289062 45.17138672 C18.72018188 46.00918671 18.72747314 46.84698669 18.73498535 47.71017456 C19.02441246 50.21093277 19.84716151 51.78635665 21 54 C21 54.99 21 55.98 21 57 C21.66 57 22.32 57 23 57 C23 57.66 23 58.32 23 59 C28.94634666 61.57139315 35.93736187 62.35911041 42.16015625 60.27734375 C46.12319732 58.19906106 48.22562457 56.03752034 50 52 C50.44899006 48.30090592 50.44099032 44.62124349 50.44140625 40.8984375 C50.45461411 39.82502106 50.46782196 38.75160461 50.48143005 37.6456604 C50.52228368 34.22208025 50.54399184 30.79876865 50.5625 27.375 C50.58627184 23.94417143 50.61434862 20.51359634 50.65428162 17.08291626 C50.67867397 14.94952229 50.69350372 12.8159935 50.69789124 10.6824646 C50.70807785 9.71781281 50.71826447 8.75316101 50.72875977 7.75927734 C50.73303482 6.91054047 50.73730988 6.06180359 50.74171448 5.18734741 C51 3 51 3 53 0 C55.7885289 -0.22107787 58.34653181 -0.28107535 61.125 -0.1875 C61.87910156 -0.17396484 62.63320313 -0.16042969 63.41015625 -0.14648438 C65.27374127 -0.11109985 67.13695978 -0.05729167 69 0 C69 3.3 69 6.6 69 10 C67.02 10 65.04 10 63 10 C63.01571045 11.23041016 63.0314209 12.46082031 63.04760742 13.72851562 C63.10216262 18.32057067 63.13644281 22.91259741 63.16479492 27.50488281 C63.17982344 29.4873538 63.20025198 31.46979186 63.22631836 33.45214844 C63.26296383 36.31193193 63.27978604 39.17127344 63.29296875 42.03125 C63.30845261 42.90865845 63.32393646 43.78606689 63.33988953 44.69006348 C63.34211587 52.94593095 61.12226231 59.37118996 56 66 C49.38291147 72.25940807 41.34312394 74.39055979 32.453125 74.19921875 C23.91439221 73.50578663 18.51914032 70.34261736 12.12890625 64.7421875 C7.13301183 58.30710882 6.5461841 50.83753853 6.48828125 42.93359375 C6.47033005 42.01409439 6.45237885 41.09459503 6.43388367 40.14723206 C6.38020739 37.24403308 6.34602319 34.34099439 6.3125 31.4375 C6.27928916 29.45505602 6.24479608 27.47263308 6.20898438 25.49023438 C6.124506 20.66027276 6.05749288 15.83035514 6 11 C3.03 10.505 3.03 10.505 0 10 C0 6.7 0 3.4 0 0 Z " fill="#FFFFFF" transform="translate(271,240)"/>
<path d="M0 0 C6.79929197 -0.07399609 13.59835111 -0.12852911 20.39794922 -0.16479492 C22.71244385 -0.17990853 25.02690974 -0.20039996 27.34130859 -0.22631836 C30.66250696 -0.26258841 33.98332768 -0.27970044 37.3046875 -0.29296875 C38.86411575 -0.31619453 38.86411575 -0.31619453 40.45504761 -0.33988953 C41.41589264 -0.34011612 42.37673767 -0.34034271 43.36669922 -0.34057617 C44.21497284 -0.34723801 45.06324646 -0.35389984 45.93722534 -0.36076355 C46.9582988 -0.18218559 46.9582988 -0.18218559 48 0 C50.49118953 3.7367843 50.2065226 5.74451819 50.125 10.1875 C50.10695313 11.45980469 50.08890625 12.73210937 50.0703125 14.04296875 C50.04710937 15.01878906 50.02390625 15.99460938 50 17 C46.37 17 42.74 17 39 17 C39 14.69 39 12.38 39 10 C32.07 10 25.14 10 18 10 C18 16.93 18 23.86 18 31 C26.58 31 35.16 31 44 31 C44 33.97 44 36.94 44 40 C43 41 43 41 40.59155273 41.11352539 C39.54942627 41.10828857 38.5072998 41.10305176 37.43359375 41.09765625 C36.30888672 41.09443359 35.18417969 41.09121094 34.02539062 41.08789062 C32.84138672 41.07951172 31.65738281 41.07113281 30.4375 41.0625 C29.24962891 41.05798828 28.06175781 41.05347656 26.83789062 41.04882812 C23.89190588 41.03699686 20.94594684 41.01906076 18 41 C18.33 47.6 18.66 54.2 19 61 C26.59 61.33 34.18 61.66 42 62 C42 59.69 42 57.38 42 55 C45.63 55 49.26 55 53 55 C53.05398987 57.27057377 53.09278742 59.54151288 53.125 61.8125 C53.14820313 63.07707031 53.17140625 64.34164062 53.1953125 65.64453125 C53 69 53 69 51 72 C49.1784668 72.38095093 49.1784668 72.38095093 46.94921875 72.38818359 C46.11495361 72.39764008 45.28068848 72.40709656 44.42114258 72.4168396 C43.0679895 72.40773056 43.0679895 72.40773056 41.6875 72.3984375 C40.76283936 72.40130768 39.83817871 72.40417786 38.88549805 72.40713501 C36.92854196 72.40917849 34.97156557 72.40362882 33.01464844 72.39111328 C30.01190707 72.37506364 27.01051179 72.39095237 24.0078125 72.41015625 C22.10937202 72.40817387 20.21093237 72.4043303 18.3125 72.3984375 C16.95934692 72.40754654 16.95934692 72.40754654 15.57885742 72.4168396 C14.74459229 72.40738312 13.91032715 72.39792664 13.05078125 72.38818359 C12.31512939 72.38579681 11.57947754 72.38341003 10.8215332 72.38095093 C9 72 9 72 7 69 C6.75949097 66.39936829 6.75949097 66.39936829 6.77294922 63.2434082 C6.77317581 61.47191154 6.77317581 61.47191154 6.77340698 59.66462708 C6.78372955 58.38955795 6.79405212 57.11448883 6.8046875 55.80078125 C6.80893234 53.84279854 6.80893234 53.84279854 6.81326294 51.84526062 C6.82089253 48.37804485 6.84053507 44.91099712 6.8626709 41.44384766 C6.88314395 37.90464552 6.89226777 34.36541618 6.90234375 30.82617188 C6.9237817 23.88404563 6.95790944 16.94203089 7 10 C4.69 10 2.38 10 0 10 C0 6.7 0 3.4 0 0 Z " fill="#FFFFFF" transform="translate(527,240)"/>
<path d="M0 0 C2.13995572 1.73039482 3.8305698 3.2783271 5.0703125 5.7578125 C5.208081 9.42796525 5.11303211 13.08392598 5.0703125 16.7578125 C1.4403125 16.7578125 -2.1896875 16.7578125 -5.9296875 16.7578125 C-6.27 15.0871875 -6.27 15.0871875 -6.6171875 13.3828125 C-7.55749893 9.75156433 -7.55749893 9.75156433 -9.9296875 8.2578125 C-14.40513136 7.51190519 -18.5266265 7.60886561 -22.9296875 8.7578125 C-25.75497326 10.80662381 -25.75497326 10.80662381 -26.9296875 13.7578125 C-26.9296875 16.93135758 -26.33675477 18.27690964 -24.29296875 20.69140625 C-21.43508247 23.19028533 -18.54203511 24.62516575 -15.1171875 26.2578125 C-13.86019988 26.87141923 -12.60368309 27.48599147 -11.34765625 28.1015625 C-9.45471664 29.01882695 -7.56163531 29.93579974 -5.66796875 30.8515625 C-0.01772942 33.79730525 3.81071771 38.00960568 6.4453125 43.7578125 C8.01359463 51.28556674 6.44586665 56.10159929 3.0703125 62.7578125 C2.7403125 63.4178125 2.4103125 64.0778125 2.0703125 64.7578125 C1.4103125 64.7578125 0.7503125 64.7578125 0.0703125 64.7578125 C0.0703125 65.4178125 0.0703125 66.0778125 0.0703125 66.7578125 C-5.89825194 71.23423583 -13.61124661 72.60379741 -20.9296875 71.7578125 C-27.8705377 70.41913961 -34.82319296 67.80614651 -39.9296875 62.7578125 C-40.828125 60.26953125 -40.828125 60.26953125 -40.9296875 57.7578125 C-39.59697821 55.34848315 -37.85166266 53.77354254 -35.9296875 51.7578125 C-33.8512819 52.76198599 -31.85508499 53.80360104 -29.88671875 55.01171875 C-24.71296576 58.16874471 -20.08767681 60.18529018 -13.9296875 59.7578125 C-9.57643452 58.24203027 -9.57643452 58.24203027 -6.9296875 54.7578125 C-6.71591029 49.15078037 -6.71591029 49.15078037 -7.9296875 43.7578125 C-10.11534885 42.71173637 -10.11534885 42.71173637 -12.9296875 41.7578125 C-32.81925486 32.92346145 -32.81925486 32.92346145 -38.9296875 23.7578125 C-40.22006855 17.80540959 -40.3316602 12.43520251 -37.9296875 6.7578125 C-29.31065633 -5.35542049 -12.59175804 -8.10562562 0 0 Z " fill="#FFFFFF" transform="translate(691.9296875,242.2421875)"/>
<path d="M0 0 C2.10304477 -0.1080023 4.20766909 -0.18558987 6.3125 -0.25 C8.07013672 -0.31960937 8.07013672 -0.31960937 9.86328125 -0.390625 C13 0 13 0 14.75 1.51953125 C16.44367504 4.88041766 17.57907168 8.35346522 18.6875 11.9375 C20.95758223 19.03617379 23.48136284 25.99380229 26.1875 32.9375 C28.877764 39.86610974 31.36586503 46.73150385 33 54 C36.48993633 45.17190661 39.93696745 36.33968139 43.0625 27.375 C45.07567964 21.6061804 47.12448242 15.85352112 49.25 10.125 C49.4962915 9.45259277 49.74258301 8.78018555 49.99633789 8.08740234 C51.10906523 5.1085986 52.22516917 2.66224624 54 0 C57.0390625 -0.29296875 57.0390625 -0.29296875 60.625 -0.1875 C61.81351563 -0.16042969 63.00203125 -0.13335937 64.2265625 -0.10546875 C65.14179687 -0.07066406 66.05703125 -0.03585938 67 0 C67 3.3 67 6.6 67 10 C65.68 10.33 64.36 10.66 63 11 C61.37853387 13.87087924 61.37853387 13.87087924 60.125 17.5 C59.87306885 18.16636475 59.6211377 18.83272949 59.36157227 19.51928711 C58.55481497 21.67289131 57.7743691 23.83455445 57 26 C56.74428223 26.70914551 56.48856445 27.41829102 56.22509766 28.14892578 C54.69530894 32.40374183 53.19882072 36.66959885 51.71582031 40.94091797 C49.01232272 48.71762283 46.31712863 56.4610713 43 64 C41.97220599 66.65710801 40.984954 69.32655343 40 72 C35.71 72 31.42 72 27 72 C23.50241985 63.15257093 20.05356629 54.30251834 16.9375 45.3125 C14.6127848 38.61034607 12.06739397 32.0314603 9.375 25.46875 C7.74687598 21.36143714 6.36165181 17.19619014 5.0546875 12.9765625 C4.70664062 12.32429687 4.35859375 11.67203125 4 11 C2.68 10.67 1.36 10.34 0 10 C0 6.7 0 3.4 0 0 Z " fill="#FFFFFF" transform="translate(456,240)"/>
<path d="M0 0 C7.78843397 -0.06943556 15.57679577 -0.12277821 23.36546135 -0.15543652 C26.9818704 -0.17110901 30.59806808 -0.19237553 34.21435547 -0.22631836 C37.70269988 -0.25885631 41.19084068 -0.27684108 44.6793251 -0.28463173 C46.66143769 -0.29289269 48.64346809 -0.31632087 50.62545776 -0.33988953 C51.82655182 -0.34011612 53.02764587 -0.34034271 54.26513672 -0.34057617 C55.32658905 -0.34723801 56.38804138 -0.35389984 57.48165894 -0.36076355 C58.31271149 -0.24171158 59.14376404 -0.12265961 60 0 C62.40503353 3.6075503 62.2396541 5.34836389 62.1875 9.625 C62.18105469 10.79289063 62.17460938 11.96078125 62.16796875 13.1640625 C62 16 62 16 61 17 C59.31391034 17.07205511 57.62499341 17.08386068 55.9375 17.0625 C55.01839844 17.05347656 54.09929688 17.04445313 53.15234375 17.03515625 C52.44207031 17.02355469 51.73179687 17.01195312 51 17 C51 14.69 51 12.38 51 10 C46.05 10 41.1 10 36 10 C36 30.46 36 50.92 36 72 C32.04 72 28.08 72 24 72 C24 51.54 24 31.08 24 10 C19.38 10 14.76 10 10 10 C10 11.98 10 13.96 10 16 C9 17 9 17 6.71484375 17.09765625 C5.34005859 17.08025391 5.34005859 17.08025391 3.9375 17.0625 C3.01839844 17.05347656 2.09929688 17.04445313 1.15234375 17.03515625 C0.44207031 17.02355469 -0.26820313 17.01195312 -1 17 C-1.02691685 14.54159395 -1.04679802 12.08348118 -1.0625 9.625 C-1.07087891 8.92632812 -1.07925781 8.22765625 -1.08789062 7.5078125 C-1.11328125 2.2265625 -1.11328125 2.2265625 0 0 Z " fill="#FFFFFF" transform="translate(739,240)"/>
<path d="M0 0 C10.24459924 -1.04435235 10.24459924 -1.04435235 13.8515625 1.1015625 C15.49460149 2.96489722 16.72349622 4.86551826 18 7 C18.65742187 8.01578125 19.31484375 9.0315625 19.9921875 10.078125 C23.6840039 15.89307391 27.06758041 21.76860838 30 28 C32.73598262 26.63200869 33.17081231 25.0284717 34.5625 22.3125 C37.09631576 17.54517256 39.83009052 12.97363028 42.75 8.4375 C43.13873291 7.83010986 43.52746582 7.22271973 43.92797852 6.59692383 C45.48805733 4.19059672 46.96613726 2.03386274 49 0 C51.8203125 -0.1953125 51.8203125 -0.1953125 55.125 -0.125 C56.22070312 -0.10695312 57.31640625 -0.08890625 58.4453125 -0.0703125 C59.70988281 -0.03550781 59.70988281 -0.03550781 61 0 C61 3.3 61 6.6 61 10 C60.09765625 10.19851562 59.1953125 10.39703125 58.265625 10.6015625 C54.21638309 12.33556801 52.79162075 14.66741672 50.75 18.375 C50.41226563 18.9525 50.07453125 19.53 49.7265625 20.125 C48.04209473 23.02971214 46.45970605 25.97632318 45 29 C44.34 29 43.68 29 43 29 C42.8868042 29.59296875 42.7736084 30.1859375 42.65698242 30.796875 C41.94846749 33.17280911 41.03128735 34.33751026 39.48828125 36.25 C35.49441812 42.44702693 36.21413482 49.88608166 36.1875 57 C36.16432305 58.45706814 36.13895112 59.91410311 36.11132812 61.37109375 C36.04888823 64.91403687 36.01622827 68.4565087 36 72 C32.37 72 28.74 72 25 72 C25.03254883 71.1656543 25.06509766 70.33130859 25.09863281 69.47167969 C25.62713222 51.51751763 24.93510413 37.9795055 13.59082031 23.19628906 C11.24640367 19.9595837 9.34632235 16.48960616 7.42016602 12.99194336 C6.04259821 10.64614658 6.04259821 10.64614658 2.625 9.875 C1.325625 9.936875 1.325625 9.936875 0 10 C0 6.7 0 3.4 0 0 Z " fill="#FFFFFF" transform="translate(803,240)"/>
<path d="M0 0 C8.25 0 16.5 0 25 0 C25 3.3 25 6.6 25 10 C22.69 10 20.38 10 18 10 C18 27.16 18 44.32 18 62 C20.31 62 22.62 62 25 62 C25 65.3 25 68.6 25 72 C16.75 72 8.5 72 0 72 C0 68.7 0 65.4 0 62 C2.31 62 4.62 62 7 62 C7 44.84 7 27.68 7 10 C4.69 10 2.38 10 0 10 C0 6.7 0 3.4 0 0 Z " fill="#FFFFFF" transform="translate(426,240)"/>
<path d="M0 0 C8.25 0 16.5 0 25 0 C25 8 25 8 24 10 C22.02 10 20.04 10 18 10 C18 27.16 18 44.32 18 62 C19.98 62 21.96 62 24 62 C25 64 25 64 25 72 C16.75 72 8.5 72 0 72 C0 68.7 0 65.4 0 62 C2.31 62 4.62 62 7 62 C7 44.84 7 27.68 7 10 C4.69 10 2.38 10 0 10 C0 6.7 0 3.4 0 0 Z " fill="#FFFFFF" transform="translate(708,240)"/>
</svg>
